<svg width="138" height="49" viewBox="0 0 138 49" fill="none" xmlns="http://www.w3.org/2000/svg">
<path d="M0.0454545 48V1.45454H31.4091V9.56818H9.88636V20.6591H29.7955V28.7727H9.88636V39.8864H31.5V48H0.0454545ZM92.8352 48.5909C91.3352 48.5909 90.0473 48.0606 88.9716 47C87.911 45.9242 87.3807 44.6364 87.3807 43.1364C87.3807 41.6515 87.911 40.3788 88.9716 39.3182C90.0473 38.2576 91.3352 37.7273 92.8352 37.7273C94.2898 37.7273 95.5625 38.2576 96.6534 39.3182C97.7443 40.3788 98.2898 41.6515 98.2898 43.1364C98.2898 44.1364 98.0322 45.053 97.517 45.8864C97.017 46.7045 96.358 47.3636 95.5398 47.8636C94.7216 48.3485 93.8201 48.5909 92.8352 48.5909Z" fill="#00A688"/>
<path d="M80.3011 17.75H70.3466C70.1648 16.4621 69.7936 15.3182 69.233 14.3182C68.6724 13.303 67.9527 12.4394 67.0739 11.7273C66.1951 11.0151 65.1799 10.4697 64.0284 10.0909C62.892 9.71212 61.6572 9.52273 60.3239 9.52273C57.9148 9.52273 55.8163 10.1212 54.0284 11.3182C52.2405 12.5 50.8542 14.2273 49.8693 16.5C48.8845 18.7576 48.392 21.5 48.392 24.7273C48.392 28.0455 48.8845 30.8333 49.8693 33.0909C50.8693 35.3485 52.2633 37.053 54.0511 38.2045C55.839 39.3561 57.9072 39.9318 60.2557 39.9318C61.5739 39.9318 62.7936 39.7576 63.9148 39.4091C65.0511 39.0606 66.0587 38.553 66.9375 37.8864C67.8163 37.2045 68.5436 36.3788 69.1193 35.4091C69.7102 34.4394 70.1193 33.3333 70.3466 32.0909L80.3011 32.1364C80.0436 34.2727 79.3996 36.3333 78.3693 38.3182C77.3542 40.2879 75.983 42.053 74.2557 43.6136C72.5436 45.1591 70.4981 46.3864 68.1193 47.2955C65.7557 48.1894 63.0814 48.6364 60.0966 48.6364C55.9451 48.6364 52.233 47.697 48.9602 45.8182C45.7027 43.9394 43.1269 41.2197 41.233 37.6591C39.3542 34.0985 38.4148 29.7879 38.4148 24.7273C38.4148 19.6515 39.3693 15.3333 41.2784 11.7727C43.1875 8.21212 45.7784 5.5 49.0511 3.63636C52.3239 1.75757 56.0057 0.81818 60.0966 0.81818C62.7936 0.81818 65.2936 1.19697 67.5966 1.95454C69.9148 2.71212 71.9678 3.81818 73.7557 5.27272C75.5436 6.71212 76.9981 8.47727 78.1193 10.5682C79.2557 12.6591 79.983 15.053 80.3011 17.75ZM122.011 48.6818C118.436 48.6818 115.36 47.9242 112.784 46.4091C110.223 44.8788 108.254 42.7576 106.875 40.0455C105.511 37.3333 104.83 34.2121 104.83 30.6818C104.83 27.1061 105.519 23.9697 106.898 21.2727C108.292 18.5606 110.269 16.447 112.83 14.9318C115.39 13.4015 118.436 12.6364 121.966 12.6364C125.011 12.6364 127.678 13.1894 129.966 14.2955C132.254 15.4015 134.064 16.9545 135.398 18.9545C136.731 20.9545 137.466 23.303 137.602 26H128.466C128.208 24.2576 127.527 22.8561 126.42 21.7955C125.33 20.7197 123.898 20.1818 122.125 20.1818C120.625 20.1818 119.314 20.5909 118.193 21.4091C117.087 22.2121 116.223 23.3864 115.602 24.9318C114.981 26.4773 114.67 28.3485 114.67 30.5455C114.67 32.7727 114.973 34.6667 115.58 36.2273C116.201 37.7879 117.072 38.9773 118.193 39.7955C119.314 40.6136 120.625 41.0227 122.125 41.0227C123.231 41.0227 124.223 40.7955 125.102 40.3409C125.996 39.8864 126.731 39.2273 127.307 38.3636C127.898 37.4848 128.284 36.4318 128.466 35.2045H137.602C137.451 37.8712 136.723 40.2197 135.42 42.25C134.133 44.2652 132.352 45.8409 130.08 46.9773C127.807 48.1136 125.117 48.6818 122.011 48.6818Z" fill="white"/>
</svg>
